<svg id="Layer_1" data-name="Layer 1" xmlns="http://www.w3.org/2000/svg" viewBox="0 0 82 82"><defs><style>.cls-1{fill:#b5c8dd;}</style></defs><title>Artboard 1</title><path class="cls-1" d="M41,82A41,41,0,1,1,82,41,41,41,0,0,1,41,82ZM41,7.84A33.16,33.16,0,1,0,74.16,41,33.2,33.2,0,0,0,41,7.84Z"/><path class="cls-1" d="M41,1A40,40,0,1,0,81,41,40,40,0,0,0,41,1Zm0,74.16A34.16,34.16,0,1,1,75.16,41,34.21,34.21,0,0,1,41,75.16Z"/><circle class="cls-1" cx="41" cy="24.6" r="4.56"/><path class="cls-1" d="M41,21a3.56,3.56,0,1,0,3.56,3.56A3.57,3.57,0,0,0,41,21Z"/><path class="cls-1" d="M41,62a3.7,3.7,0,0,1-3.7-3.7V34a3.7,3.7,0,0,1,7.4,0V58.26A3.7,3.7,0,0,1,41,62Z"/><path class="cls-1" d="M41,31.27A2.7,2.7,0,0,0,38.3,34V58.26a2.7,2.7,0,0,0,5.4,0V34A2.7,2.7,0,0,0,41,31.27Z"/></svg>