<svg id="Isolation_Mode" data-name="Isolation Mode" xmlns="http://www.w3.org/2000/svg" viewBox="0 0 82 82"><defs><style>.cls-1{fill:#b5c8dd;}</style></defs><title>Artboard 1</title><path class="cls-1" d="M41,82A41,41,0,1,1,82,41,41,41,0,0,1,41,82ZM41,7.84A33.16,33.16,0,1,0,74.16,41,33.2,33.2,0,0,0,41,7.84Z"/><path class="cls-1" d="M41,1A40,40,0,1,0,81,41,40,40,0,0,0,41,1Zm0,74.16A34.16,34.16,0,1,1,75.16,41,34.21,34.21,0,0,1,41,75.16Z"/><path class="cls-1" d="M39.76,51.13a3.7,3.7,0,0,1-3.08-1.65c-2.21-3.32-.82-7.77,1.7-10.45a19.94,19.94,0,0,1,4.36-3.28C44.2,34.85,45.58,34,46.1,33a2.52,2.52,0,0,0,.06-1.92c-.67-2-3.31-3.71-5.64-3.71l-.4,0a11.45,11.45,0,0,0-5.86,2.47A3.7,3.7,0,0,1,29.7,24a18.85,18.85,0,0,1,9.76-4c.34,0,.7-.05,1.06-.05,5.51,0,10.94,3.75,12.64,8.72a9.88,9.88,0,0,1-.51,7.74c-1.46,2.8-3.89,4.29-6,5.61a14.49,14.49,0,0,0-2.86,2.05,3.26,3.26,0,0,0-.81,1.5,3.7,3.7,0,0,1-1.15,4.92A3.74,3.74,0,0,1,39.76,51.13Z"/><path class="cls-1" d="M40.52,21c-.33,0-.65,0-1,.05a17.82,17.82,0,0,0-9.23,3.81,2.69,2.69,0,0,0-.46,3.78,2.71,2.71,0,0,0,3.79.46A12.52,12.52,0,0,1,40,26.39l.49,0c2.76,0,5.78,2,6.59,4.38A3.53,3.53,0,0,1,47,33.47c-.64,1.24-2.13,2.15-3.71,3.13a19.29,19.29,0,0,0-4.16,3.11c-2.25,2.4-3.52,6.33-1.6,9.22a2.7,2.7,0,0,0,2.25,1.2A2.72,2.72,0,0,0,42.4,48a2.69,2.69,0,0,0-.4-2c-.19-.27.14-1.56,1-2.52a15.31,15.31,0,0,1,3.06-2.22c2-1.25,4.33-2.66,5.66-5.22a8.83,8.83,0,0,0,.45-7C50.65,24.43,45.62,21,40.52,21Z"/><path class="cls-1" d="M39.62,62a4.56,4.56,0,1,1,4.57-4.56A4.57,4.57,0,0,1,39.62,62Z"/><path class="cls-1" d="M39.62,53.9a3.57,3.57,0,1,0,3.57,3.57A3.57,3.57,0,0,0,39.62,53.9Z"/></svg>