<svg id="Layer_1" data-name="Layer 1" xmlns="http://www.w3.org/2000/svg" viewBox="0 0 78 93.77"><defs><style>.cls-1{fill:#054993;}</style></defs><title>Artboard 1</title><path class="cls-1" d="M68.91,33H66.73V26.13C66.73,11.72,54.7,0,39.92,0H38.09C23.3,0,11.27,11.72,11.27,26.13V33H9.09A9,9,0,0,0,0,41.81v43.1a9,9,0,0,0,9.09,8.86H68.91A9,9,0,0,0,78,84.91V41.81A9,9,0,0,0,68.91,33ZM23.09,26.13a14.82,14.82,0,0,1,15-14.61h1.83a14.82,14.82,0,0,1,15,14.61V33H23.09ZM22,71.7a6.2,6.2,0,1,1,6.36-6.2A6.29,6.29,0,0,1,22,71.7Zm17,0a6.2,6.2,0,1,1,6.36-6.2A6.29,6.29,0,0,1,39,71.7Zm17,0a6.2,6.2,0,1,1,6.37-6.2A6.29,6.29,0,0,1,56,71.7Z"/></svg>