<?xml version="1.0" encoding="utf-8"?>
<!-- Generator: Adobe Illustrator 23.0.2, SVG Export Plug-In . SVG Version: 6.00 Build 0)  -->
<svg version="1.1" id="Layer_1" xmlns="http://www.w3.org/2000/svg" xmlns:xlink="http://www.w3.org/1999/xlink" x="0px" y="0px"
	 viewBox="0 0 97 73.12" style="enable-background:new 0 0 97 73.12;" xml:space="preserve">
<style type="text/css">
	.st0{fill:#054993;}
</style>
<title>Artboard 1</title>
<path class="st0" d="M21.51,73.06c-2.67,0-4.84-2.17-4.84-4.84c0-1.15,0.41-2.27,1.16-3.15L71.8,1.76c1.74-2.03,4.79-2.28,6.83-0.54
	c2.03,1.74,2.28,4.79,0.54,6.83L25.2,71.36C24.28,72.44,22.93,73.06,21.51,73.06z"/>
<ellipse class="st0" cx="48.5" cy="36.56" rx="15.76" ry="15.57"/>
<path class="st0" d="M94.27,29.08C52.34-19.74,16.04,13.11,2.6,29.16c-3.5,4.42-3.65,10.53,0,14.83
	c13.46,16.03,49.71,48.92,91.68,0.05C97.8,39.68,97.8,33.44,94.27,29.08z M48.5,58.86C36.18,58.71,26.32,48.6,26.48,36.28
	s10.26-22.18,22.58-22.02c12.21,0.15,22.02,10.09,22.02,22.3C71,48.95,60.9,58.94,48.5,58.86C48.5,58.86,48.5,58.86,48.5,58.86z"/>
</svg>
