<?xml version="1.0" encoding="utf-8"?>
<!-- Generator: Adobe Illustrator 23.0.2, SVG Export Plug-In . SVG Version: 6.00 Build 0)  -->
<svg version="1.1" id="Layer_1" xmlns="http://www.w3.org/2000/svg" xmlns:xlink="http://www.w3.org/1999/xlink" x="0px" y="0px"
	 viewBox="0 0 170 170" style="enable-background:new 0 0 170 170;" xml:space="preserve">
<style type="text/css">
	.st0{fill:#00A3F9;}
	.st1{fill:#FFFFFF;}
</style>
<title>Artboard 3</title>
<g>
	<circle class="st0" cx="85" cy="85" r="85"/>
	<path class="st1" d="M133,58.6l9.1-12.7l-5.6,2.4c-1.7,0.7-7.6,3.2-11.2,4.7c-4.3-4.1-9.9-6.3-15.8-6.3
		c-12.6,0-22.8,10.2-22.8,22.8c0,1,0.1,2,0.2,3c-24.1-0.9-40.6-22.9-40.7-23.1l-1.7-2.2l-1.1,2.6c-0.1,0.2-6.6,15.4,4,28.1
		c-1.4-0.1-3.2-0.4-5-1.1L40,75.8l0,2.6c0,0.2,0.1,4,2.2,8.6c1.6,3.5,4.8,8.2,11.1,11.7c-0.9,0.1-2,0.2-3.2,0.1l-1.8-0.1l0.1,1.9
		c0,0.1,0.2,3.6,2.8,7.4c1.9,2.8,5.7,6.4,12.8,8.2c0,0-12.4,9.5-28.5,9.1l0.9,0.4c0.2,0.1,18,8.4,38.2,8.4
		c20.1,0,46.1-8.4,55.5-48.6c1.1-4.9,1.8-10,1.9-15.8l13.5-14.5L133,58.6z"/>
</g>
</svg>
